<svg width="34" height="34" viewBox="0 0 34 34" fill="none" xmlns="http://www.w3.org/2000/svg">
<path d="M17 22.6667L21.9583 25.5V19.8333L26.9167 17L21.9583 14.1667V8.5L17 11.3333L12.0417 8.5V14.1667L7.08333 17L12.0417 19.8333V25.5L17 22.6667Z" fill="white"/>
<path d="M31.875 14.1667L26.9167 17V11.3333L21.9583 8.5L26.9167 5.66667L31.875 8.5V14.1667Z" fill="white"/>
<path d="M31.875 19.8333L26.9167 17V22.6667L21.9583 25.5L26.9167 28.3333L31.875 25.5V19.8333Z" fill="white"/>
<path d="M12.0417 31.1667V25.5L17 28.3333L21.9583 25.5V31.1667L17 34L12.0417 31.1667Z" fill="white"/>
<path d="M2.125 19.8333L7.08333 17V22.6667L12.0417 25.5L7.08333 28.3333L2.125 25.5V19.8333Z" fill="white"/>
<path d="M2.125 14.1667L7.08333 17V11.3333L12.0417 8.5L7.08333 5.66667L2.125 8.5V14.1667Z" fill="white"/>
<path d="M12.0417 2.83333V8.5L17 5.66667L21.9583 8.5V2.83333L17 0L12.0417 2.83333Z" fill="white"/>
</svg>
