<svg width="30" height="30" viewBox="0 0 30 30" fill="none" xmlns="http://www.w3.org/2000/svg">
<path d="M24.9406 9.90089C24.9558 10.1213 24.9558 10.3417 24.9558 10.5641C24.9558 17.3415 19.7964 25.1578 10.3621 25.1578V25.1538C7.57516 25.1579 4.84613 24.3596 2.5 22.8544C2.90524 22.9031 3.31251 22.9275 3.7208 22.9285C6.03037 22.9305 8.27392 22.1556 10.0909 20.7286C7.8961 20.687 5.97146 19.256 5.29911 17.1668C6.06795 17.3151 6.86015 17.2846 7.61477 17.0784C5.22192 16.595 3.50041 14.4926 3.50041 12.051C3.50041 12.0287 3.50041 12.0073 3.50041 11.986C4.21339 12.3831 5.01168 12.6035 5.82826 12.6279C3.57455 11.1217 2.87985 8.12352 4.24081 5.77942C6.84491 8.98377 10.6871 10.9318 14.8116 11.1379C14.3982 9.35651 14.9629 7.48976 16.2955 6.23748C18.3613 4.29557 21.6103 4.3951 23.5522 6.4599C24.7009 6.23341 25.8018 5.81192 26.8094 5.21473C26.4265 6.40201 25.6251 7.41054 24.5546 8.05141C25.5713 7.93157 26.5646 7.65937 27.5 7.24398C26.8114 8.27587 25.944 9.17471 24.9406 9.90089Z" fill="white"/>
</svg>
