<svg width="34" height="34" viewBox="0 0 34 34" fill="none" xmlns="http://www.w3.org/2000/svg">
<path d="M17 7.08333L19.8334 12.0417H25.5L28.3334 7.08333H22.6667L19.8334 2.125L17 7.08333Z" fill="white"/>
<path d="M25.5 21.9583L22.6667 17L25.5 12.0417H31.1667L28.3334 17L31.1667 21.9583H25.5Z" fill="white"/>
<path d="M17 26.9167L19.8334 21.9583H25.5L28.3334 26.9167H22.6667L19.8334 31.875L17 26.9167Z" fill="white"/>
<path d="M17 26.9167L14.1667 21.9583H8.50004L5.66671 26.9167H11.3334L14.1667 31.875L17 26.9167Z" fill="white"/>
<path d="M8.50004 21.9583L11.3334 17L8.50004 12.0417H2.83337L5.66671 17L2.83337 21.9583H8.50004Z" fill="white"/>
<path d="M17 7.08333L14.1667 12.0417H8.50004L5.66671 7.08333H11.3334L14.1667 2.125L17 7.08333Z" fill="white"/>
</svg>
