<svg width="34" height="34" viewBox="0 0 34 34" fill="none" xmlns="http://www.w3.org/2000/svg">
<path d="M5.30565 28.591V23.798H9.58677C10.657 23.798 11.6224 23.6414 12.4828 23.3281C13.3432 22.9939 14.0777 22.5345 14.6863 21.9497C15.2949 21.3441 15.7566 20.6236 16.0714 19.7882C16.3862 18.9319 16.5436 17.9921 16.5436 16.9688C16.5436 15.9037 16.3862 14.9534 16.0714 14.118C15.7566 13.2826 15.2949 12.5726 14.6863 11.9878C14.0777 11.403 13.3432 10.9645 12.4828 10.6721C11.6224 10.3588 10.657 10.2022 9.58677 10.2022H5.30565V5.40918H9.30346C11.3811 5.40918 13.1963 5.71201 14.7493 6.31766C16.3022 6.92331 17.6034 7.74825 18.6527 8.79247C19.702 9.8367 20.4784 11.0376 20.9821 12.3951C21.5067 13.7317 21.7691 15.1414 21.7691 16.6242V17.3134C21.7691 18.6917 21.5067 20.0597 20.9821 21.4172C20.4784 22.7538 19.702 23.9651 18.6527 25.0511C17.6034 26.1162 16.3022 26.9724 14.7493 27.6199C13.1963 28.2673 11.3811 28.591 9.30346 28.591H5.30565ZM0.772705 28.591V5.40918H5.93523V28.591H0.772705Z" fill="#666666"/>
<path d="M11.0662 28.4657L18.9044 16.2796L18.9673 16.8122L11.7272 5.59717H17.3934L21.8634 12.7397H22.5874L26.9944 5.59717H32.5032L25.2316 16.8748L25.1372 16.3736L33.2272 28.4657H27.5296L22.3041 20.3834H21.5486L16.575 28.4657H11.0662Z" fill="white"/>
</svg>
