<svg width="44" height="44" viewBox="0 0 44 44" fill="none" xmlns="http://www.w3.org/2000/svg">
<path fill-rule="evenodd" clip-rule="evenodd" d="M4.125 11C4.125 7.96243 6.58743 5.5 9.625 5.5H34.375C37.4126 5.5 39.875 7.96243 39.875 11V33C39.875 36.0376 37.4126 38.5 34.375 38.5H9.625C6.58743 38.5 4.125 36.0376 4.125 33V11ZM11.4027 12.7777C11.9397 12.2408 12.8103 12.2408 13.3473 12.7777L17.4723 16.9027C18.0092 17.4397 18.0092 18.3103 17.4723 18.8473L13.3473 22.9723C12.8103 23.5092 11.9397 23.5092 11.4027 22.9723C10.8658 22.4353 10.8658 21.5647 11.4027 21.0277L14.5555 17.875L11.4027 14.7223C10.8658 14.1853 10.8658 13.3147 11.4027 12.7777ZM19.25 20.625C18.4906 20.625 17.875 21.2406 17.875 22C17.875 22.7594 18.4906 23.375 19.25 23.375H24.75C25.5094 23.375 26.125 22.7594 26.125 22C26.125 21.2406 25.5094 20.625 24.75 20.625H19.25Z" fill="white"/>
</svg>
