<svg width="44" height="44" viewBox="0 0 44 44" fill="none" xmlns="http://www.w3.org/2000/svg">
<path fill-rule="evenodd" clip-rule="evenodd" d="M22 2.75C22.7594 2.75 23.375 3.36561 23.375 4.125V8.25C23.375 9.00939 22.7594 9.625 22 9.625C21.2406 9.625 20.625 9.00939 20.625 8.25V4.125C20.625 3.36561 21.2406 2.75 22 2.75ZM10.3327 7.58274C10.8697 7.04577 11.7403 7.04577 12.2773 7.58274L15.1941 10.4996C15.7311 11.0365 15.7311 11.9071 15.1941 12.4441C14.6571 12.9811 13.7865 12.9811 13.2496 12.4441L10.3327 9.52728C9.79577 8.99031 9.79577 8.11971 10.3327 7.58274ZM33.6673 7.58274C34.2042 8.11971 34.2042 8.99031 33.6673 9.52728L30.7504 12.4441C30.2135 12.9811 29.3429 12.9811 28.8059 12.4441C28.2689 11.9071 28.2689 11.0365 28.8059 10.4996L31.7227 7.58274C32.2597 7.04577 33.1303 7.04577 33.6673 7.58274ZM21.172 15.8249C21.7437 15.6718 22.3493 15.9016 22.6754 16.3955L32.2585 30.9098C32.5649 31.3739 32.5616 31.9768 32.2501 32.4375C31.9386 32.8982 31.3802 33.1259 30.8354 33.0145L26.9904 32.2277L28.9057 39.3758C29.1023 40.1093 28.667 40.8633 27.9334 41.0598C27.1999 41.2563 26.446 40.821 26.2494 40.0875L24.3341 32.9395L21.3981 35.5431C20.982 35.9121 20.3846 35.9941 19.8845 35.7509C19.3844 35.5077 19.08 34.9871 19.1133 34.432L20.1554 17.0707C20.1909 16.4799 20.6004 15.9781 21.172 15.8249ZM5.5 19.25C5.5 18.4906 6.11561 17.875 6.875 17.875H11C11.7594 17.875 12.375 18.4906 12.375 19.25C12.375 20.0094 11.7594 20.625 11 20.625H6.875C6.11561 20.625 5.5 20.0094 5.5 19.25ZM31.625 19.25C31.625 18.4906 32.2406 17.875 33 17.875H37.125C37.8844 17.875 38.5 18.4906 38.5 19.25C38.5 20.0094 37.8844 20.625 37.125 20.625H33C32.2406 20.625 31.625 20.0094 31.625 19.25ZM15.1941 26.0559C15.7311 26.5929 15.7311 27.4635 15.1941 28.0004L12.2773 30.9173C11.7403 31.4542 10.8697 31.4542 10.3327 30.9173C9.79577 30.3803 9.79577 29.5097 10.3327 28.9727L13.2496 26.0559C13.7865 25.5189 14.6571 25.5189 15.1941 26.0559Z" fill="white"/>
</svg>
