<svg width="44" height="44" viewBox="0 0 44 44" fill="none" xmlns="http://www.w3.org/2000/svg">
<path d="M12.0053 22C12.0053 17.0979 11.9934 12.184 12.0053 7.2819C12.0053 5.26409 13.026 3.79228 14.8183 3.21068C15.2456 3.06825 15.7085 3.0089 16.1596 3.0089C20.302 2.99703 24.4326 2.99703 28.5631 3.0089C30.9726 3.02077 32.7293 4.76558 32.7293 7.1632C32.7412 17.0504 32.7412 26.9377 32.7293 36.8368C32.7293 39.2344 30.9726 40.9911 28.575 40.9911C24.4801 41.003 20.3851 41.003 16.2901 40.9911C13.7263 40.9911 12.0171 39.3056 12.0171 36.7181C11.9934 31.8042 12.0053 26.9021 12.0053 22ZM22.3792 6.45104C21.572 6.45104 20.7649 6.45104 19.9578 6.45104C19.3168 6.46291 18.9608 6.75964 18.9489 7.2819C18.937 7.81602 19.2694 8.18398 19.8866 8.18398C21.5483 8.20772 23.1982 8.20772 24.8599 8.18398C25.4533 8.17211 25.8569 7.76855 25.8332 7.2819C25.8094 6.78338 25.4177 6.45104 24.8124 6.45104C23.9934 6.45104 23.1863 6.45104 22.3792 6.45104ZM22.3792 34.095C21.4059 34.095 20.6344 34.8546 20.6462 35.816C20.6581 36.7656 21.4533 37.5371 22.4029 37.5252C23.3287 37.5134 24.0765 36.7656 24.0884 35.8279C24.0884 34.8427 23.3525 34.1068 22.3792 34.095Z" fill="white"/>
</svg>
