<svg width="28" height="28" viewBox="0 0 28 28" fill="none" xmlns="http://www.w3.org/2000/svg">
<path fill-rule="evenodd" clip-rule="evenodd" d="M6.22241 14C6.22241 13.3234 6.75519 12.775 7.41241 12.775H17.9446L14.5209 9.57468C14.0472 9.10576 14.0324 8.33028 14.488 7.8426C14.9435 7.35492 15.6968 7.33972 16.1705 7.80864L21.7239 13.117C21.9572 13.3479 22.0891 13.6668 22.0891 14C22.0891 14.3332 21.9572 14.6521 21.7239 14.883L16.1705 20.1913C15.6968 20.6603 14.9435 20.6451 14.488 20.1574C14.0324 19.6697 14.0472 18.8942 14.5209 18.4253L17.9446 15.225H7.41241C6.75519 15.225 6.22241 14.6765 6.22241 14Z" fill="white"/>
</svg>
